<?xml version="1.0" encoding="utf-8"?>
<!-- Uploaded to: SVG Repo, www.svgrepo.com, Generator: SVG Repo Mixer Tools -->
<svg xmlns="http://www.w3.org/2000/svg" xmlns:xlink="http://www.w3.org/1999/xlink" version="1.1" id="heavyraincloud"  viewBox="0 0 207.6146 205.1133" enable-background="new 0 0 207.6146 205.1133" xml:space="preserve" width="512" height="512">
<g>
	<path fill="#D0E8FF" d="M165.6146,60c-0.6055,0-1.2031,0.0156-1.8008,0.0449c-1.082,0.0801-2.1641-0.3398-2.957-1.0957   s-1.2422-1.8027-1.2422-2.8984c0-26.5176-22.4297-48.0508-50-48.0508C87.7162,8,68.556,21.4531,61.9427,41.4746   c-0.5859,1.7812-2.3516,2.9141-4.1875,2.7266C56.3919,44.0684,55.0091,44,53.6146,44c-23.1602,0-42,18.8418-42,42s18.8398,42,42,42   c0.6172,0,1.2266-0.0117,1.8359-0.0391c0.2578-0.0078,0.5156,0.002,0.7617,0.0391h110.7578   c0.1406-0.0234,0.2812-0.0391,0.4219-0.0449c18.0703-0.9316,32.2227-15.8457,32.2227-33.9551   C199.6146,75.252,184.3607,60,165.6146,60z"/>
	<path fill="#1C71DA" d="M167.4701,52.041C165.3607,23.002,140.2162,0,109.6146,0c-24.2773,0-45.6719,14.3555-54.207,36.0312   C54.8138,36.0098,54.2162,36,53.6146,36c-27.5703,0-50,22.4297-50,50s22.4297,50,50,50c0.5234,0,1.0469-0.0078,1.5664-0.0234   C55.3255,135.9922,55.4701,136,55.6146,136h112c0.2891,0,0.5742-0.0332,0.8516-0.0957   c22.0078-1.4746,39.1484-19.7559,39.1484-41.9043C207.6146,71.4629,189.7709,53.0156,167.4701,52.041z M167.392,127.9551   c-0.1406,0.0059-0.2812,0.0215-0.4219,0.0449H56.2123c-0.2461-0.0371-0.5039-0.0469-0.7617-0.0391   C54.8412,127.9883,54.2318,128,53.6146,128c-23.1602,0-42-18.8418-42-42s18.8398-42,42-42c1.3945,0,2.7773,0.0684,4.1406,0.2012   c1.8359,0.1875,3.6016-0.9453,4.1875-2.7266C68.556,21.4531,87.7162,8,109.6146,8c27.5703,0,50,21.5332,50,48.0508   c0,1.0957,0.4492,2.1426,1.2422,2.8984s1.875,1.1758,2.957,1.0957C164.4115,60.0156,165.0091,60,165.6146,60   c18.7461,0,34,15.252,34,34C199.6146,112.1094,185.4623,127.0234,167.392,127.9551z"/>
	<path fill="#1C71DA" d="M62.4974,145.6602c-1.9102-1.1055-4.3633-0.4492-5.4648,1.4648l-9.2305,15.9883   c-1.1055,1.9141-0.4492,4.3594,1.4648,5.4648c0.6289,0.3633,1.3164,0.5352,1.9961,0.5352c1.3828,0,2.7266-0.7168,3.4688-2   l9.2305-15.9883C65.0677,149.2109,64.4115,146.7656,62.4974,145.6602z"/>
	<path fill="#1C71DA" d="M62.4974,181.6602c-1.9102-1.1074-4.3633-0.4512-5.4648,1.4648l-9.2305,15.9883   c-1.1055,1.9141-0.4492,4.3594,1.4648,5.4648c0.6289,0.3633,1.3164,0.5352,1.9961,0.5352c1.3828,0,2.7266-0.7168,3.4688-2   l9.2305-15.9883C65.0677,185.2109,64.4115,182.7656,62.4974,181.6602z"/>
	<path fill="#1C71DA" d="M86.4974,145.6602c-1.9141-1.1055-4.3594-0.4492-5.4648,1.4648l-9.2305,15.9883   c-1.1055,1.9141-0.4492,4.3594,1.4648,5.4648c0.6289,0.3633,1.3164,0.5352,1.9961,0.5352c1.3828,0,2.7266-0.7168,3.4688-2   l9.2305-15.9883C89.0677,149.2109,88.4115,146.7656,86.4974,145.6602z"/>
	<path fill="#1C71DA" d="M86.4974,181.6602c-1.9141-1.1074-4.3594-0.4512-5.4648,1.4648l-9.2305,15.9883   c-1.1055,1.9141-0.4492,4.3594,1.4648,5.4648c0.6289,0.3633,1.3164,0.5352,1.9961,0.5352c1.3828,0,2.7266-0.7168,3.4688-2   l9.2305-15.9883C89.0677,185.2109,88.4115,182.7656,86.4974,181.6602z"/>
	<path fill="#1C71DA" d="M110.4974,145.6602c-1.9102-1.1055-4.3594-0.4492-5.4648,1.4648l-9.2305,15.9883   c-1.1055,1.9141-0.4492,4.3594,1.4648,5.4648c0.6289,0.3633,1.3164,0.5352,1.9961,0.5352c1.3828,0,2.7266-0.7168,3.4688-2   l9.2305-15.9883C113.0677,149.2109,112.4115,146.7656,110.4974,145.6602z"/>
	<path fill="#1C71DA" d="M110.4974,181.6602c-1.9102-1.1074-4.3594-0.4512-5.4648,1.4648l-9.2305,15.9883   c-1.1055,1.9141-0.4492,4.3594,1.4648,5.4648c0.6289,0.3633,1.3164,0.5352,1.9961,0.5352c1.3828,0,2.7266-0.7168,3.4688-2   l9.2305-15.9883C113.0677,185.2109,112.4115,182.7656,110.4974,181.6602z"/>
	<path fill="#1C71DA" d="M134.4974,145.6602c-1.9141-1.1055-4.3594-0.4492-5.4648,1.4648l-9.2305,15.9883   c-1.1055,1.9141-0.4492,4.3594,1.4648,5.4648c0.6289,0.3633,1.3164,0.5352,1.9961,0.5352c1.3828,0,2.7266-0.7168,3.4688-2   l9.2305-15.9883C137.0677,149.2109,136.4115,146.7656,134.4974,145.6602z"/>
	<path fill="#1C71DA" d="M134.4974,181.6602c-1.9141-1.1074-4.3594-0.4512-5.4648,1.4648l-9.2305,15.9883   c-1.1055,1.9141-0.4492,4.3594,1.4648,5.4648c0.6289,0.3633,1.3164,0.5352,1.9961,0.5352c1.3828,0,2.7266-0.7168,3.4688-2   l9.2305-15.9883C137.0677,185.2109,136.4115,182.7656,134.4974,181.6602z"/>
	<path fill="#1C71DA" d="M158.4974,145.6602c-1.9102-1.1055-4.3594-0.4492-5.4648,1.4648l-9.2305,15.9883   c-1.1055,1.9141-0.4492,4.3594,1.4648,5.4648c0.6289,0.3633,1.3164,0.5352,1.9961,0.5352c1.3828,0,2.7266-0.7168,3.4688-2   l9.2305-15.9883C161.0677,149.2109,160.4115,146.7656,158.4974,145.6602z"/>
	<path fill="#1C71DA" d="M158.4974,181.6602c-1.9102-1.1074-4.3594-0.4512-5.4648,1.4648l-9.2305,15.9883   c-1.1055,1.9141-0.4492,4.3594,1.4648,5.4648c0.6289,0.3633,1.3164,0.5352,1.9961,0.5352c1.3828,0,2.7266-0.7168,3.4688-2   l9.2305-15.9883C161.0677,185.2109,160.4115,182.7656,158.4974,181.6602z"/>
</g>
<path fill="#FF5D5D" d="M120,70.8322c-1.0234,0-2.0469-0.3906-2.8281-1.1714c-1.5625-1.5625-1.5625-4.0952,0-5.6572l14.1426-14.1421  c1.5605-1.5615,4.0938-1.5615,5.6562,0c1.5625,1.5625,1.5625,4.0952,0,5.6572l-14.1426,14.1421  C122.0479,70.4415,121.0234,70.8322,120,70.8322z"/>
<path fill="#FF5D5D" d="M134.1426,70.8322c-1.0234,0-2.0469-0.3906-2.8281-1.1714l-14.1426-14.1421  c-1.5625-1.562-1.5625-4.0947,0-5.6572c1.5605-1.5615,4.0938-1.5615,5.6562,0l14.1426,14.1421c1.5625,1.562,1.5625,4.0947,0,5.6572  C136.1904,70.4415,135.166,70.8322,134.1426,70.8322z"/>
<path fill="#00D40B" d="M14,158.8322c-7.7197,0-14-6.2803-14-14s6.2803-14,14-14s14,6.2803,14,14S21.7197,158.8322,14,158.8322z   M14,138.8322c-3.3086,0-6,2.6914-6,6s2.6914,6,6,6s6-2.6914,6-6S17.3086,138.8322,14,138.8322z"/>
<path fill="#FFC504" d="M187.3135,181.4596c-1.0605,0-2.0781-0.4214-2.8281-1.1719l-11.3135-11.314  c-1.5625-1.562-1.5625-4.0942,0-5.6567l11.3135-11.3135c1.5605-1.5615,4.0957-1.5615,5.6562,0l11.3135,11.3135  c1.5625,1.5625,1.5625,4.0947,0,5.6567l-11.3135,11.314C189.3916,181.0382,188.374,181.4596,187.3135,181.4596z M181.6572,166.1456  l5.6562,5.6572l5.6562-5.6572l-5.6562-5.6567L181.6572,166.1456z"/>
</svg>